PathFileType	4	(X/Y/Z)	C:/Users/CLatella/Desktop/xsens/test 26Settembre2016/Meri-002.trc	
DataRate	CameraRate	NumFrames	NumMarkers	Units	OrigDataRate	OrigDataStartFrame	OrigNumFrames	
240.00	240.00	6	64	mm	240.00	398	1060	
Frame#	Time	pHipOrigin			pRightASI			pLeftASI			pRightCSI			pLeftCSI			pRightIschialTub			pLeftIschialTub			pSacrum			pL5SpinalProcess			pL3SpinalProcess			pT12SpinalProcess			pPX			pIJ			pT4SpinalProcess			pT8SpinalProcess			pC7SpinalProcess			pTopOfHead			pRightAuricularis			pLeftAuricularis			pBackOfHead			pRightAcromion			pLeftAcromion			pRightArmLatEpicondyle			pRightArmMedEpicondyle			pLeftArmLatEpicondyle			pLeftArmMedEpicondyle			pRightUlnarStyloid			pRightRadialStyloid			pRightOlecranon			pLeftUlnarStyloid			pLeftRadialStyloid			pLeftOlecranon			pRightTopOfHand			pRightPinky			pRightBallHand			pLeftTopOfHand			pLeftPinky			pLeftBallHand			pRightGreaterTrochanter			pRightKneeLatEpicondyle			pRightKneeMedEpicondyle			pRightPatella			pLeftGreaterTrochanter			pLeftKneeLatEpicondyle			pLeftKneeMedEpicondyle			pLeftPatella			pRightLatMalleolus			pRightMedMalleolus			pRightTibialTub			pLeftLatMalleolus			pLeftMedMalleolus			pLeftTibialTub			pRightHeelFoot			pRightFirstMetatarsal			pRightFifthMetatarsal			pRightPivotFoot			pRightHeelCenter			pRightToe			pLeftHeelFoot			pLeftFirstMetatarsal			pLeftFifthMetatarsal			pLeftPivotFoot			pLeftHeelCenter			pLeftToe			
		X1	Y1	Z1	X2	Y2	Z2	X3	Y3	Z3	X4	Y4	Z4	X5	Y5	Z5	X6	Y6	Z6	X7	Y7	Z7	X8	Y8	Z8	X9	Y9	Z9	X10	Y10	Z10	X11	Y11	Z11	X12	Y12	Z12	X13	Y13	Z13	X14	Y14	Z14	X15	Y15	Z15	X16	Y16	Z16	X17	Y17	Z17	X18	Y18	Z18	X19	Y19	Z19	X20	Y20	Z20	X21	Y21	Z21	X22	Y22	Z22	X23	Y23	Z23	X24	Y24	Z24	X25	Y25	Z25	X26	Y26	Z26	X27	Y27	Z27	X28	Y28	Z28	X29	Y29	Z29	X30	Y30	Z30	X31	Y31	Z31	X32	Y32	Z32	X33	Y33	Z33	X34	Y34	Z34	X35	Y35	Z35	X36	Y36	Z36	X37	Y37	Z37	X38	Y38	Z38	X39	Y39	Z39	X40	Y40	Z40	X41	Y41	Z41	X42	Y42	Z42	X43	Y43	Z43	X44	Y44	Z44	X45	Y45	Z45	X46	Y46	Z46	X47	Y47	Z47	X48	Y48	Z48	X49	Y49	Z49	X50	Y50	Z50	X51	Y51	Z51	X52	Y52	Z52	X53	Y53	Z53	X54	Y54	Z54	X55	Y55	Z55	X56	Y56	Z56	X57	Y57	Z57	X58	Y58	Z58	X59	Y59	Z59	X60	Y60	Z60	X61	Y61	Z61	X62	Y62	Z62	X63	Y63	Z63	X64	Y64	Z64	

398	1.654	143.52123	-1.99751	927.49468	234.10839	-114.00799	984.47371	211.73625	124.49493	985.32265	214.68258	-95.23138	1062.42661	196.20560	101.87310	1063.12574	86.29251	-56.97903	893.53698	77.05402	41.59818	893.88655	83.04655	-7.79030	965.74703	135.23155	-2.19726	1030.66617	177.67868	-1.99751	1127.74524	223.37176	-2.59677	1209.44348	382.82314	-0.99876	1196.65940	448.64116	-4.49440	1285.64855	327.69182	-6.79154	1348.62011	276.80520	-4.29465	1285.44880	356.90543	-6.94135	1385.82377	579.72787	-6.89142	1506.97287	494.68381	-72.35987	1461.37966	501.52528	57.37853	1449.09496	459.47766	-2.24720	1488.59576	378.12899	-174.53260	1358.05836	354.80804	170.13807	1339.88100	355.90667	-177.57880	1040.45398	350.26370	-116.85444	1042.20180	318.90276	163.89585	1022.32656	313.45954	103.17149	1024.52382	383.32252	-129.83827	813.63651	425.51996	-111.51110	823.72394	332.13628	-158.75225	1036.95833	342.97278	135.33143	794.46039	382.27383	110.51234	801.95106	296.68045	148.31525	1020.32904	573.43571	-137.57863	791.91357	494.88356	-137.22906	766.89473	433.80963	-118.10289	793.76126	498.97846	218.87736	756.30792	419.52742	197.70373	750.16557	379.92675	144.91948	771.58888	160.40020	-150.61239	902.22616	156.55499	-143.37141	521.15084	148.66482	-70.21254	516.95606	193.30921	-99.77572	521.45046	81.29873	121.64847	904.22367	82.54718	123.49617	523.09841	140.97440	78.90172	517.40550	138.87701	132.28522	523.14835	142.72222	-164.69485	95.63088	145.36892	-102.02292	91.13648	218.37798	-108.61471	484.09699	79.20134	184.37034	101.32379	87.59089	122.54735	93.58343	174.93210	117.50363	483.64755	105.51856	-127.94063	-0.04994	253.03481	-119.55108	0.94882	242.09843	-185.36910	1.54807	266.41814	-154.65735	1.49813	144.51998	-134.38261	4.59428	342.27365	-167.29162	1.29838	42.44713	152.60990	4.84397	187.76611	125.79331	2.89639	185.21928	192.46027	3.34583	205.44409	158.95200	2.94633	82.04780	154.10804	8.68918	282.24842	161.89833	1.04869 
399	1.658	143.92073	-1.89764	927.44474	234.55783	-113.90811	984.32389	212.18569	124.59480	985.12290	215.28184	-95.08156	1062.27679	196.80485	102.02292	1062.97592	86.59214	-56.87915	893.58692	77.35365	41.69806	893.93648	83.49599	-7.69042	965.84691	135.73093	-2.04745	1030.66617	178.37781	-1.84770	1127.64537	224.27064	-2.44695	1209.29366	383.67209	-0.84894	1196.11009	449.68985	-4.34459	1284.94942	328.94026	-6.64173	1348.22061	277.90383	-4.14484	1285.19911	358.20381	-6.74160	1385.32439	581.22601	-6.59179	1506.07398	496.13200	-72.11018	1460.68053	502.92354	57.62822	1448.34589	460.92586	-2.04745	1487.89663	379.27756	-174.38278	1357.65886	356.00655	170.28788	1339.43156	356.10642	-177.77855	1040.10441	350.51339	-117.05419	1041.85223	318.85283	164.04566	1021.97699	313.45954	103.32130	1024.22419	383.57221	-129.83827	813.33688	425.76965	-111.56104	823.42432	332.38597	-159.00194	1036.60877	342.87291	135.28149	794.11083	382.17395	110.46240	801.65144	296.68045	148.46507	1019.97948	573.73534	-137.52869	791.96350	495.23312	-137.17913	766.79486	434.10926	-118.10289	793.51158	498.97846	218.82742	756.15810	419.52742	197.70373	749.91588	379.87681	144.86955	771.28926	160.74976	-150.51252	902.22616	156.70480	-143.37141	521.15084	148.86457	-70.21254	516.90612	193.50896	-99.82565	521.45046	81.64830	121.74835	904.22367	82.69699	123.49617	523.09841	141.07427	78.90172	517.35556	138.97689	132.28522	523.14835	142.72222	-164.69485	95.63088	145.41886	-102.07285	91.13648	218.52779	-108.61471	484.09699	79.20134	184.37034	101.32379	87.59089	122.54735	93.58343	175.03197	117.55357	483.59761	105.51856	-127.89070	-0.04994	253.08475	-119.60102	0.94882	242.09843	-185.41904	1.54807	266.41814	-154.75723	1.49813	144.51998	-134.38261	4.59428	342.27365	-167.39149	1.29838	42.44713	152.65984	4.84397	187.76611	125.74337	2.84645	185.21928	192.41033	3.34583	205.44409	158.90207	2.89639	82.04780	154.15798	8.63924	282.24842	161.84840	0.99876 
400	1.662	144.27029	-1.74782	927.44474	235.00727	-113.80824	984.17408	212.68507	124.74461	984.97309	215.83115	-94.98169	1062.17692	197.35417	102.17273	1062.82611	86.89176	-56.72934	893.68679	77.65327	41.79794	894.03636	83.89550	-7.54061	965.89685	136.28024	-1.94757	1030.61623	179.12687	-1.69789	1127.54549	225.16952	-2.29714	1209.09391	384.52103	-0.69913	1195.56077	450.73855	-4.19477	1284.25030	330.13877	-6.44198	1347.82111	278.95253	-3.99502	1284.89949	359.50219	-6.59179	1384.82502	582.72414	-6.34210	1505.22504	497.63014	-71.91043	1459.93146	504.27186	57.82797	1447.59683	462.42399	-1.84770	1487.19750	380.47607	-174.18303	1357.30929	357.25499	170.43770	1338.98212	356.35611	-178.02824	1039.80479	350.81302	-117.30388	1041.45273	318.85283	164.19547	1021.62743	313.50948	103.47111	1023.87463	383.77196	-129.88821	812.98732	425.96940	-111.56104	823.07475	332.63566	-159.25163	1036.25920	342.82297	135.28149	793.76126	382.12401	110.41247	801.30187	296.68045	148.61488	1019.62992	574.03496	-137.42881	792.01344	495.58269	-137.12919	766.64504	434.40889	-118.05295	793.26189	498.92852	218.82742	756.00829	419.47749	197.70373	749.66619	379.87681	144.86955	770.98963	161.09933	-150.41264	902.22616	156.90455	-143.37141	521.15084	149.06432	-70.21254	516.90612	193.65877	-99.82565	521.40053	81.99786	121.84822	904.22367	82.79687	123.49617	523.09841	141.22409	78.95166	517.30563	139.12670	132.33516	523.09841	142.72222	-164.74479	95.63088	145.41886	-102.07285	91.13648	218.72755	-108.66464	484.04706	79.20134	184.42028	101.32379	87.59089	122.59729	93.53349	175.13185	117.55357	483.54768	105.51856	-127.94063	-0.04994	253.08475	-119.55108	0.94882	242.14837	-185.36910	1.54807	266.41814	-154.65735	1.49813	144.51998	-134.38261	4.54434	342.27365	-167.29162	1.29838	42.44713	152.65984	4.84397	187.76611	125.79331	2.84645	185.16935	192.51020	3.34583	205.44409	159.00194	2.89639	82.04780	154.15798	8.63924	282.19848	161.99821	0.99876 
401	1.667	144.61986	-1.64795	927.39481	235.45671	-113.65842	984.02427	213.13451	124.84449	984.82327	216.43041	-94.83187	1062.07704	197.95342	102.27261	1062.67630	87.19139	-56.62946	893.78667	78.00284	41.89781	894.08630	84.34494	-7.44073	965.99672	136.82956	-1.79776	1030.61623	179.82600	-1.49813	1127.49555	226.06840	-2.09739	1208.94410	385.41991	-0.54932	1195.01145	451.83718	-4.04496	1283.55117	331.33728	-6.29216	1347.37167	280.05116	-3.79527	1284.59986	360.80057	-6.39204	1384.37558	584.22227	-6.04247	1504.32616	499.07833	-71.71067	1459.18239	505.67012	58.02772	1446.79782	463.87219	-1.64795	1486.49837	381.67457	-173.98328	1356.95973	358.45350	170.63745	1338.53268	356.60580	-178.32787	1039.50516	351.11264	-117.55357	1041.10317	318.85283	164.39522	1021.27786	313.50948	103.67086	1023.57500	384.02165	-129.93814	812.68769	426.16915	-111.56104	822.77512	332.93528	-159.50132	1035.90964	342.77303	135.23155	793.41170	382.02414	110.41247	800.95231	296.73038	148.81463	1019.28035	574.28465	-137.37888	792.01344	495.88231	-137.07925	766.49523	434.65858	-118.05295	793.01220	498.92852	218.82742	755.85848	419.47749	197.70373	749.46644	379.82688	144.86955	770.69000	161.39896	-150.31277	902.22616	157.10431	-143.37141	521.15084	149.26407	-70.21254	516.90612	193.85852	-99.82565	521.40053	82.34743	121.94810	904.22367	82.94668	123.54611	523.09841	141.32396	78.95166	517.25569	139.27651	132.33516	523.04847	142.72222	-164.79473	95.63088	145.41886	-102.12279	91.13648	218.87736	-108.66464	483.99712	79.20134	184.42028	101.27385	87.59089	122.59729	93.53349	175.28166	117.60351	483.49774	105.51856	-127.99057	-0.04994	253.08475	-119.55108	0.99876	242.14837	-185.36910	1.54807	266.46808	-154.65735	1.44820	144.56992	-134.38261	4.54434	342.32359	-167.24168	1.29838	42.44713	152.65984	4.79403	187.76611	125.84325	2.84645	185.16935	192.51020	3.29589	205.44409	159.05188	2.89639	82.04780	154.15798	8.63924	282.19848	162.04815	0.99876 
402	1.671	145.01936	-1.54807	927.39481	235.90615	-113.55855	983.92439	213.58395	124.94437	984.62352	216.97972	-94.68206	1061.97717	198.55268	102.42242	1062.57642	87.49102	-56.52958	893.83661	78.30246	41.99769	894.18617	84.74444	-7.29092	966.09660	137.37888	-1.64795	1030.61623	180.57507	-1.34832	1127.39568	226.96728	-1.94757	1208.74435	386.26885	-0.39950	1194.46214	452.88587	-3.89515	1282.85204	332.58572	-6.09241	1346.97217	281.09985	-3.64546	1284.30023	362.09896	-6.24222	1383.87620	585.72041	-5.79278	1503.42728	500.52653	-71.46099	1458.43333	507.01844	58.27741	1445.99882	465.37032	-1.44820	1485.79924	382.82314	-173.78353	1356.61016	359.65201	170.78726	1338.08324	356.85549	-178.57756	1039.20553	351.41227	-117.85320	1040.70367	318.85283	164.54504	1020.92830	313.55942	103.82068	1023.27537	384.22140	-129.98808	812.33813	426.36890	-111.56104	822.47550	333.18497	-159.80095	1035.61001	342.72309	135.28149	793.11207	382.02414	110.41247	800.65268	296.73038	148.96445	1018.98072	574.53434	-137.27900	792.01344	496.18194	-137.02931	766.34542	434.90826	-118.05295	792.76251	498.92852	218.82742	755.70866	419.52742	197.70373	749.21675	379.82688	144.86955	770.34044	161.74852	-150.21289	902.22616	157.25412	-143.42135	521.15084	149.46382	-70.21254	516.85619	194.05827	-99.87559	521.35059	82.69699	122.04797	904.17373	83.09649	123.54611	523.04847	141.47378	79.00159	517.25569	139.37639	132.38510	522.99854	142.77216	-164.79473	95.63088	145.41886	-102.17273	91.13648	219.07711	-108.66464	483.99712	79.20134	184.42028	101.27385	87.59089	122.59729	93.53349	175.38154	117.60351	483.44780	105.56850	-127.94063	-0.04994	253.13469	-119.60102	0.99876	242.14837	-185.41904	1.54807	266.46808	-154.75723	1.44820	144.56992	-134.43255	4.54434	342.32359	-167.39149	1.29838	42.44713	152.65984	4.79403	187.76611	125.84325	2.84645	185.16935	192.56014	3.29589	205.44409	159.05188	2.89639	82.04780	154.15798	8.58930	282.19848	162.04815	0.99876 
403	1.675	145.36892	-1.44820	927.39481	236.35559	-113.45867	983.77458	214.08333	125.09418	984.47371	217.57898	-94.58219	1061.82735	199.15193	102.57223	1062.42661	87.84058	-56.42971	893.93648	78.65203	42.09756	894.23611	85.19388	-7.19104	966.14654	137.87825	-1.54807	1030.61623	181.32414	-1.19851	1127.34574	227.86616	-1.79776	1208.59454	387.11779	-0.24969	1193.96276	453.93456	-3.69540	1282.15291	333.78423	-5.89266	1346.57267	282.14855	-3.44571	1284.00061	363.39734	-6.04247	1383.37682	587.21854	-5.49316	1502.47846	502.02466	-71.21130	1457.68426	508.41670	58.52710	1445.24975	466.86845	-1.19851	1485.10011	384.02165	-173.53384	1356.31054	360.85051	170.98701	1337.58386	357.10518	-178.82725	1038.95584	351.66196	-118.10289	1040.35410	318.90276	164.74479	1020.62867	313.60936	104.02043	1022.92581	384.42115	-130.03802	812.03850	426.56865	-111.61097	822.17587	333.48460	-160.10057	1035.26045	342.72309	135.28149	792.76251	381.97420	110.41247	800.30312	296.78032	149.21413	1018.63116	574.83397	-137.22906	792.01344	496.53150	-136.97937	766.19560	435.15795	-118.10289	792.51282	498.97846	218.82742	755.50891	419.52742	197.75367	748.96706	379.82688	144.91948	770.04081	162.04815	-150.11301	902.22616	157.45387	-143.42135	521.15084	149.66357	-70.21254	516.85619	194.25803	-99.87559	521.35059	83.09649	122.14785	904.17373	83.19637	123.59604	523.04847	141.62359	79.00159	517.20575	139.52620	132.38510	522.94860	142.77216	-164.84466	95.63088	145.46880	-102.17273	91.13648	219.22692	-108.71458	483.94718	79.20134	184.42028	101.27385	87.59089	122.59729	93.48355	175.53135	117.65345	483.44780	105.56850	-127.94063	-0.04994	253.13469	-119.65096	0.99876	242.14837	-185.46897	1.49813	266.46808	-154.80717	1.44820	144.56992	-134.43255	4.54434	342.32359	-167.49137	1.29838	42.44713	152.65984	4.79403	187.81605	125.89318	2.79652	185.16935	192.56014	3.29589	205.44409	159.05188	2.84645	82.04780	154.15798	8.58930	282.24842	162.09809	0.99876 
